{"title":"Desi Hindi Madhuri Dixit Hot Video","uid":6447520,"size":65960452,"categoryP":"video","categoryS":"music_videos","magnet":"?xt=urn:btih:e42b3242dc6a6135bac5d0d93b5c785817fcc7b1&amp;dn=Desi+Hindi+Madhuri+Dixit+Hot+Video&amp;tr=udp%3A%2F%2Ftracker.openbittorrent.com%3A80&amp;tr=udp%3A%2F%2Fopen.demonii.com%3A1337&amp;tr=udp%3A%2F%2Ftracker.coppersurfer.tk%3A6969&amp;tr=udp%3A%2F%2Fexodus.desync.com%3A6969","seeders":0,"leechers":3,"uploader":"Robin5555","files":1,"time":1307314469,"description":"Format                           : AVI\nFormat/Info                      : Audio Video Interleave\nFile size                        : 62.9 MiB\nDuration                         : 6mn 31s\nOverall bit rate                 : 1 347 Kbps\nWriting application              : Lavf51.12.1\n\nVideo\nID                               : 0\nFormat                           : xvid\nCodec ID                         : xvid\nDuration                         : 6mn 31s\nBit rate                         : 1 206 Kbps\nWidth                            : 720 pixels\nHeight                           : 480 pixels\nDisplay aspect ratio             : 3:2\nFrame rate                       : 29.970 fps\nStandard                         : NTSC\nBits/(Pixel*Frame)               : 0.116\nStream size                      : 56.3 MiB (90%)\n\nAudio\nID                               : 1\nFormat                           : MPEG Audio\nFormat version                   : Version 1\nFormat profile                   : Layer 3\nMode                             : Joint stereo\nMode extension                   : MS Stereo\nCodec ID                         : 55\nCodec ID/Hint                    : MP3\nDuration                         : 6mn 31s\nBit rate mode                    : Constant\nBit rate                         : 128 Kbps\nChannel(s)                       : 2 channels\nSampling rate                    : 44.1 KHz\nCompression mode                 : Lossy\nStream size                      : 5.98 MiB (10%)\nAlignment                        : Aligned on interleaves\nInterleave, duration             : 26 ms (0.78 video frame)\n\nScreen :\n &lt;a href=&quot;\nhttp://www.desiupload.com/show.php/871459_MaadhuriJhalakhthumb.jpg.html&quot; rel=&quot;nofollow&quot; target=&quot;_NEW&quot;&gt;\nhttp://www.desiupload.com/show.php/871459_MaadhuriJhalakhthumb.jpg.html&lt;/a&gt;\n\nSeeding Time : 2:00 - 8:00 IST,  Please Post Comments &amp; Seed After Download\n\nTPB IS BENEDICTION TO US\n","torrent":{"xt":"urn:btih:e42b3242dc6a6135bac5d0d93b5c785817fcc7b1","amp;dn":"Desi+Hindi+Madhuri+Dixit+Hot+Video","amp;tr":["udp%3A%2F%2Ftracker.openbittorrent.com%3A80","udp%3A%2F%2Fopen.demonii.com%3A1337","udp%3A%2F%2Ftracker.coppersurfer.tk%3A6969","udp%3A%2F%2Fexodus.desync.com%3A6969"],"infoHash":"e42b3242dc6a6135bac5d0d93b5c785817fcc7b1","infoHashBuffer":{"type":"Buffer","data":[228,43,50,66,220,106,97,53,186,197,208,217,59,92,120,88,23,252,199,177]},"announce":[],"urlList":[]}}